<?xml version="1.0" standalone="no"?><!DOCTYPE svg PUBLIC "-//W3C//DTD SVG 1.1//EN" "http://www.w3.org/Graphics/SVG/1.1/DTD/svg11.dtd"><svg t="1724676624310" class="icon" viewBox="0 0 1024 1024" version="1.1" xmlns="http://www.w3.org/2000/svg" p-id="9547" xmlns:xlink="http://www.w3.org/1999/xlink" width="256" height="256"><path d="M71.68 621.226667c0 49.921138 191.783822 88.746667 427.494969 88.746666S927.288889 670.531129 927.288889 621.226667s-191.783822-88.746667-427.494969-88.746667S71.68 571.307804 71.68 621.226667z" fill="#F5F5F5" p-id="9548"></path><path d="M33.318684 721.892693c2.475804 0 5.568284-1.859129 5.568285-5.575111 0-2.475804-1.856853-5.575111-5.568285-5.575111H6.708338c-2.475804 0-5.57056 1.859129-5.57056 5.575111 0 2.47808 1.856853 5.575111 5.57056 5.575111h26.610346z m502.506383 0c2.475804 0 5.57056-1.859129 5.57056-5.575111 0-2.475804-1.856853-5.575111-5.57056-5.575111H58.072178c-2.475804 0-5.57056 1.859129-5.57056 5.575111 0 2.47808 1.856853 5.575111 5.57056 5.575111h477.752889z m52.604017 0c2.473529 0 5.568284-1.859129 5.568285-5.575111 0-2.475804-1.856853-5.575111-5.568285-5.575111h-26.612622c-2.473529 0-5.568284 1.859129-5.568284 5.575111 0 2.47808 1.856853 5.575111 5.568284 5.575111h26.612622z m428.862578 0c2.475804 0 5.57056-1.859129 5.57056-5.575111 0-2.475804-1.856853-5.575111-5.57056-5.575111h-26.610346c-2.475804 0-5.568284 1.859129-5.568285 5.575111 0 2.47808 1.856853 5.575111 5.568285 5.575111h26.610346z m-51.36384 0c2.475804 0 5.57056-1.859129 5.57056-5.575111 0-2.475804-1.856853-5.575111-5.57056-5.575111H619.988764c-2.473529 0-5.568284 1.859129-5.568284 5.575111 0 2.47808 1.856853 5.575111 5.568284 5.575111H965.927822zM410.817422 785.066667c2.475804 0 5.57056-1.859129 5.57056-5.575111 0-2.475804-1.856853-5.575111-5.57056-5.575112h-26.610346c-2.475804 0-5.57056 1.859129-5.57056 5.575112 0 2.480356 1.856853 5.575111 5.57056 5.575111h26.610346z m327.991751 0c2.475804 0 5.57056-1.859129 5.57056-5.575111 0-2.475804-1.856853-5.575111-5.57056-5.575112h-11.757795c-2.475804 0-5.57056 1.859129-5.57056 5.575112 0 2.480356 1.856853 5.575111 5.57056 5.575111h11.757795z m-37.751466 0c2.47808 0 5.57056-1.859129 5.57056-5.575111 0-2.475804-1.856853-5.575111-5.568285-5.575112H442.998329c-2.475804 0-5.57056 1.859129-5.57056 5.575112 0 2.480356 1.856853 5.575111 5.57056 5.575111h258.061653zM948.601742 210.306844c-15.471502 0-29.086151 13.623751-29.086151 29.108907 0 15.48288 13.614649 29.108907 29.086151 29.108907 16.090453 0 29.086151-13.007076 29.086151-29.108907 0-16.104107-12.993422-29.111182-29.086151-29.111182z m-0.618951 45.210738c-8.66304 0-16.088178-7.431964-16.088178-16.101831 0-8.669867 7.425138-16.104107 16.088178-16.104107 8.665316 0 16.090453 7.431964 16.090453 16.104107 0.618951 8.669867-7.425138 16.101831-16.088177 16.101831z m-79.83104 157.315982c-11.757796 0-19.182933 8.669867-19.182933 19.201138 0 9.910044 8.66304 19.198862 19.182933 19.198862 9.900942 0 19.182933-8.669867 19.182933-19.198862-0.616676-12.388124-9.281991-19.201138-19.182933-19.201138z m-1.856853 24.773974a5.547804 5.547804 0 0 1-5.57056-5.575111c0-4.332658 2.475804-5.572836 5.57056-5.572836 4.332658 0 5.57056 2.47808 5.57056 5.575111 0.618951 3.715982-2.475804 5.575111-5.57056 5.575111zM144.71168 170.666667c-22.277689 0-39.606044 17.96096-39.606044 39.640177 0 22.295893 17.945031 39.637902 39.606044 39.637903 22.277689 0 39.606044-17.96096 39.606044-39.640178C184.32 188.627627 166.989369 170.666667 144.71168 170.666667z m1.856853 66.271004c-14.2336 0-26.610347-11.766898-26.610346-26.633102 0-14.244978 11.757796-26.630827 26.610346-26.630827 14.2336 0 26.610347 11.766898 26.610347 26.630827 0 14.866204-12.379022 26.633102-26.610347 26.633102z" fill="#B4B4B4" p-id="9549"></path><path d="M353.971769 253.182862h-7.334116c-1.834098 0-4.278044-1.850027-4.278044-4.319004 0-1.850027 1.831822-4.316729 4.278044-4.316729h7.334116c1.834098 0 4.278044 1.850027 4.278044 4.316729 0.612124 2.468978-0.612124 4.319004-4.278044 4.319004z m-9.780338-15.419164c-1.831822 1.850027-4.278044 1.850027-5.500018 0-1.834098-1.850027-1.834098-4.316729 0-5.552356l5.500018-5.55008c1.834098-1.850027 4.278044-1.850027 5.502293 0 1.831822 1.852302 1.831822 4.319004 0 5.552356l-5.502293 5.55008zM327.079253 282.168889c-1.834098 0-4.278044-1.850027-4.278044-4.316729v-8.635733c0-1.850027 1.831822-4.316729 4.278044-4.316729 1.831822 0 4.278044 1.850027 4.278045 4.316729v7.402382c-1.221973 2.466702-3.056071 5.55008-4.278045 5.55008z m0-49.955271c-1.834098 0-4.278044-1.850027-4.278044-4.316729v-7.402382c0-1.850027 1.831822-4.316729 4.278044-4.316729 1.831822 0 4.278044 1.850027 4.278045 4.316729v7.402382c-1.221973 3.083378-3.056071 4.316729-4.278045 4.316729z m-17.726577 39.471786c-1.831822 1.850027-4.278044 1.850027-5.500018 0-1.221973-1.852302-1.834098-4.319004 0-5.552355l5.500018-5.55008c1.834098-1.850027 4.278044-1.850027 5.502293 0 1.831822 1.850027 1.831822 4.316729 0 5.552355l-5.502293 5.55008z m0-33.921706l-5.500018-5.552356c-1.834098-1.847751-1.834098-4.314453 0-5.55008 1.834098-1.850027 4.278044-1.850027 5.500018 0l5.502293 5.552356c1.831822 1.850027 1.831822 4.316729 0 5.55008-1.224249 1.850027-4.278044 1.850027-5.502293 0z m1.224248 12.333511c0 1.852302-1.834098 4.319004-4.278044 4.319004h-7.336391c-1.834098 0-4.278044-1.850027-4.278045-4.316729 0-1.852302 1.834098-4.319004 4.278045-4.319004h7.334115c1.834098-0.6144 4.278044 1.233351 4.278045 4.319004z m33.614507 11.719111l5.502293 5.552356c1.831822 1.847751 1.831822 4.316729 0 5.55008-1.834098 1.233351-4.278044 1.850027-5.502293 0l-5.500018-5.552356c-1.834098-1.850027-1.834098-4.316729 0-5.55008 1.221973-3.083378 3.056071-3.083378 5.500018 0z" fill="#DCDCDC" p-id="9550"></path><path d="M130.844444 641.706667c0 38.131484 165.146169 68.266667 368.64 68.266666s368.64-30.751858 368.64-68.266666c0-38.131484-165.146169-68.266667-368.64-68.266667S130.844444 604.191858 130.844444 641.706667z" fill="#EBEAEA" p-id="9551"></path><path d="M212.764444 670.151111c0 22.400569 128.530204 39.822222 286.72 39.822222s286.72-17.421653 286.72-39.822222c0-22.400569-128.530204-39.822222-286.72-39.822222s-286.72 17.421653-286.72 39.822222z" fill="#DCDBDC" p-id="9552"></path><path d="M640.848782 441.582933h-139.218489c-8.66304 0-17.945031-5.57056-22.277689-13.616924-5.566009-9.900942-16.085902-16.090453-30.936177-16.090453h-94.669938c-19.182933 0-34.030933 13.616924-34.030933 30.94528v173.911608c0 11.757796 9.898667 20.423111 23.513315 20.423112h298.857813c13.612373 0 23.513316-8.665316 23.513316-20.423112V462.006044c-1.856853-11.757796-12.993422-20.423111-24.751218-20.423111z" fill="#C6C8C7" p-id="9553"></path><path d="M642.707911 435.3024h-139.314062c-5.575111 0-11.764622-4.323556-16.099556-9.880462-6.810738-12.96384-20.434489-20.373049-35.293866-20.373049h-95.971556c-22.289067 0-40.864427 17.287396-40.864427 38.279395v172.87168c0 16.051769 13.002524 27.782258 29.10208 27.782258h297.201209c17.337458 0 29.10208-12.966116 30.958934-29.63456v-151.263004c-0.618951-16.051769-13.621476-27.784533-29.718756-27.784534z m16.09728 181.51424c0 8.64256-7.429689 14.199467-16.099555 14.199467H343.645298c-8.667591 0-16.09728-5.556907-16.09728-14.199467V442.709333c0-11.730489 11.764622-23.460978 26.624-23.460977h97.828409c9.907769 0 19.194311 4.937956 23.529244 13.585066 5.572836 11.728213 16.099556 17.904071 27.864178 17.904071h139.311787c8.669867 0 16.099556 5.554631 16.099555 14.199467v151.87968z" fill="#B4B3B3" p-id="9554"></path><path d="M500.724622 564.337778h-2.480355C431.957333 564.337778 381.155556 511.708729 381.155556 447.315058v-32.19456C381.155556 348.869973 433.814187 298.097778 498.244267 298.097778h2.480355C565.154702 298.097778 617.813333 350.726827 617.813333 415.120498v29.099804C617.813333 510.470827 565.154702 564.337778 500.724622 564.337778z" fill="#FFFFFF" p-id="9555"></path><path d="M588.586098 571.164444h-177.720889c-20.434489 0-36.53632-16.040391-36.53632-36.399786v-204.818205c0-20.359396 16.099556-36.399787 36.53632-36.399786h177.101938c20.434489 0 36.53632 16.040391 36.53632 36.399786v204.201529c1.856853 20.976071-15.480604 37.016462-35.917369 37.016462z m-177.720889-265.896391c-13.623751 0-23.53152 11.721387-23.53152 23.442774v204.203804c0 13.573689 11.764622 23.442773 23.529244 23.442773h178.344391c13.621476 0 23.529244-11.719111 23.529245-23.442773v-204.203804c0-13.571413-11.764622-23.442773-23.529245-23.442774h-178.342115z" fill="#B4B1B1" p-id="9556"></path><path d="M573.537849 363.975111h-145.83808c-4.344036 0-5.584213-2.503111-5.584213-5.632 0-4.380444 2.480356-5.632 5.584213-5.632h145.219129c4.344036 0 5.584213 2.503111 5.584213 5.632 1.861404 3.128889-0.621227 5.632-4.965262 5.632zM520.169244 402.773333h-92.469475c-4.344036 0-5.584213-2.503111-5.584213-5.632 0-4.380444 2.480356-5.632 5.584213-5.632h92.469475c4.344036 0 5.584213 2.503111 5.584214 5.632 1.861404 3.128889-1.240178 5.632-5.584214 5.632z m26.683165 0c-1.861404 0-4.344036-1.877333-4.344036-1.877333-1.861404-1.877333-1.861404-2.503111-1.861404-4.380444s1.861404-4.380444 1.861404-4.380445c2.482631-2.503111 7.447893-2.503111 8.690347 0 1.861404 1.877333 1.861404 2.503111 1.861404 4.380445s-1.861404 4.380444-1.861404 4.380444-3.103858 1.877333-4.346311 1.877333z" fill="#C6C8C7" p-id="9557"></path><path d="M655.610311 471.165156H510.589156c-9.914596 0-19.21024-5.57056-23.549725-13.616925-5.575111-9.900942-17.970062-16.090453-30.98624-16.090453h-101.014187C335.826489 441.457778 319.715556 455.074702 319.715556 472.403058v173.911609c0 11.757796 11.776 20.423111 23.549724 20.423111h312.342756c13.635129 0 23.552-8.665316 23.552-20.423111v-153.486223c1.237902-11.14112-9.916871-21.663289-23.552-21.663288z" fill="#C7C8C8" p-id="9558"></path><path d="M655.610311 469.827129H510.589156c-9.914596 0-19.21024-4.348587-23.549725-11.805582-5.575111-8.697173-17.970062-14.288213-30.98624-14.288214h-101.014187C335.826489 443.733333 319.715556 455.53664 319.715556 470.448356v149.724728c0 9.939627 11.776 19.258027 23.549724 19.258027h312.342756c13.635129 0 23.552-8.697173 23.552-19.258027v-131.709155c1.237902-9.939627-9.916871-18.6368-23.552-18.6368z" fill="#C7C8C8" p-id="9559"></path><path d="M655.187058 675.84H343.781831c-16.065422 0-30.892942-11.780551-30.892942-27.902862v-174.860516c0-20.464071 19.153351-38.445511 40.777955-38.445511h100.713814c16.065422 0 30.892942 7.441067 36.4544 20.461796 4.323556 5.581938 9.885013 9.921422 17.917724 9.921422h144.579698c16.065422 0 30.892942 11.782827 30.892942 27.902862l1.854578 84.95104c0 4.339484-2.471253 5.579662-5.561458 5.579662-4.323556 0-5.559182-2.480356-5.559182-5.579662l-1.854578-84.95104c0-8.681244-8.649387-14.260907-17.917724-14.260907H511.840711c-11.737316 0-23.476907-5.579662-29.038364-17.98144-4.323556-8.681244-14.210844-13.641956-26.569387-13.641955h-101.944889c-16.065422 0-27.807289 11.780551-27.807289 23.563378v174.239289c0 7.441067 8.651662 14.263182 17.92 14.263182h311.402951c8.651662 0 17.92-5.581938 17.92-14.263182v-17.98144c0-4.339484 2.471253-5.579662 5.559183-5.579663 4.323556 0 5.561458 2.480356 5.561457 5.579663v17.98144C686.08 662.819271 673.104782 675.84 655.187058 675.84z" fill="#B4B3B3" p-id="9560"></path><path d="M680.391111 609.848889c-1.706667 0-3.982222-1.706667-3.982222-1.706667-1.706667-1.706667-1.706667-2.275556-1.706667-3.982222s1.706667-3.982222 1.706667-3.982222c2.275556-2.275556 6.826667-2.275556 7.964444 0 1.706667 1.706667 1.706667 2.275556 1.706667 3.982222s-1.706667 3.982222-1.706667 3.982222c-1.137778 1.137778-2.275556 1.706667-3.982222 1.706667z" fill="#B4B1B1" p-id="9561"></path><path d="M903.484302 785.066667c2.489458 0 5.600142-1.895538 5.600142-5.688889 0-2.528142-1.865956-5.688889-5.600142-5.688889H762.220089c-2.489458 0-5.600142 1.895538-5.600142 5.688889 0 2.528142 1.865956 5.688889 5.600142 5.688889h141.261938z" fill="#B4B4B4" p-id="9562"></path><path d="M428.038827 555.219627h10.474382v-6.146276h6.159929v6.144h13.555484v4.917476h-13.555484v6.146275c4.928853 0 9.243307-0.6144 13.555484-0.6144 0 1.8432-0.6144 3.6864-0.6144 5.5296-4.314453 0-8.626631 0.6144-12.941084 0.6144v6.760676h-6.159929v-6.144c-6.77888 0.6144-13.555484 0.6144-20.332089 1.2288l-0.616676-6.144c7.395556 0 14.169884-0.6144 20.948765-0.6144v-6.762951h-17.250987v-4.9152l5.543254-9.218276h-8.624356v-4.917475h11.705458c1.233351-2.4576 2.464427-5.5296 3.697778-8.603876l5.545528 1.8432c-1.233351 2.4576-2.464427 4.3008-3.081102 6.760676h22.796516v4.9152H433.584356l-5.545529 9.220551z m2.464426 25.197226h57.915165v35.644303h-6.159929v-3.6864h-45.593031v3.6864h-6.162205v-35.644303z m51.755236 4.9152h-45.593031v7.989476h45.593031v-7.9872z m-45.593031 21.510827h45.593031v-7.989476h-45.593031v7.9872z m26.492018-67.602204c11.091058 0 22.796516-1.2288 33.887573-3.072l1.847751 5.5296c-10.474382 1.2288-20.332089 1.8432-29.57312 2.4576v11.063751h31.420871v4.9152h-12.322133v17.822151H482.872889v-17.822151h-13.553209c-1.233351 7.375076-3.697778 14.135751-8.009956 19.053226-1.233351-1.2288-3.081102-2.4576-4.928853-4.303075 4.928853-4.9152 7.39328-12.904676 7.39328-22.125227l-0.6144-13.519075z m41.897528 26.426026h33.268623c1.233351-5.5296 1.850027-12.292551 1.850026-19.665351h-28.95872v-6.760675h68.389547v6.7584h-32.654222c-0.6144 7.375076-1.231076 13.521351-2.464427 19.667626h41.280853v6.7584h-42.511928c-4.314453 19.053227-16.019911 33.803378-35.120925 44.250454a123.31008 123.31008 0 0 0-4.312178-6.144c16.634311-8.606151 27.725369-20.896427 32.654223-38.104178h-31.420872v-6.760676z m43.128605 12.904676h6.776604v22.125226c0 4.3008 1.847751 6.7584 6.162205 6.7584h11.705458c3.697778 0 6.162204-1.8432 6.776604-4.9152 0.616676-3.072 0.616676-7.3728 1.233351-12.290275 1.847751 0.6144 4.312178 1.8432 7.39328 2.4576-0.6144 5.5296-1.233351 9.832676-1.847751 12.292551-0.616676 5.5296-4.928853 8.6016-11.707733 8.6016h-14.78656c-7.39328 0-11.091058-3.6864-11.091058-11.6736l-0.6144-23.356302z" fill="#FFFFFF" p-id="9563"></path></svg>