<?xml version="1.0" standalone="no"?><!DOCTYPE svg PUBLIC "-//W3C//DTD SVG 1.1//EN" "http://www.w3.org/Graphics/SVG/1.1/DTD/svg11.dtd"><svg t="1720342770825" class="icon" viewBox="0 0 1024 1024" version="1.1" xmlns="http://www.w3.org/2000/svg" p-id="47580" xmlns:xlink="http://www.w3.org/1999/xlink" width="256" height="256"><path d="M968.868153 964.604274h-913.688532l0.191098-319.982085 82.757489-255.928338a122.768685 122.768685 0 0 1 116.820752-85.002893h523.047867a122.768685 122.768685 0 0 1 117.967342 88.753196l72.521788 251.485304z" fill="#EFF4FB" p-id="47581"></path><path d="M950.88103 946.688812l-0.358309-300.215359-71.829057-249.060744a104.853224 104.853224 0 0 0-100.756555-75.806289h-523.035924a104.853224 104.853224 0 0 0-99.777176 72.605393l-81.885603 253.205188-0.179154 299.23598h877.857609m17.915461 17.915462H55.179621l0.191098-319.982085 82.757489-255.928338a122.768685 122.768685 0 0 1 116.820752-85.002893h523.047867a122.768685 122.768685 0 0 1 117.967342 88.753196l72.521788 251.485304z" fill="#C6D0DD" p-id="47582"></path><path d="M652.660259 645.231315a143.323691 143.323691 0 1 1-281.380237 0H55.179621v319.958197a58.810488 58.810488 0 0 0 58.810488 58.810488h796.067556a58.822432 58.822432 0 0 0 58.810488-58.810488v-319.958197z" fill="#FFFFFF" p-id="47583"></path><path d="M73.095083 663.146776v302.042736a40.942801 40.942801 0 0 0 40.895026 40.895027h796.067556a40.942801 40.942801 0 0 0 40.895027-40.895027v-302.042736h-278.01213q0.274704 4.610245 0.274703 9.160773a161.239153 161.239153 0 0 1-322.478305 0q0-4.538584 0.274704-9.160773H73.095083m-17.915462-17.915461h316.148176a143.323691 143.323691 0 1 0 281.380237 0H968.868153v319.958197a58.822432 58.822432 0 0 1-58.810488 58.810488H113.942335a58.810488 58.810488 0 0 1-58.810488-58.810488z" fill="#C6D0DD" p-id="47584"></path><path d="M356.5774 863.537184m25.320519 0l260.156387 0q25.320519 0 25.320519 25.320519l0-0.011944q0 25.320519-25.320519 25.320519l-260.156387 0q-25.320519 0-25.320519-25.320519l0 0.011944q0-25.320519 25.320519-25.320519Z" fill="#F0F4FA" p-id="47585"></path><path d="M426.949333 480.421013c-8.145563 0-13.042456-0.489689-13.687413-0.561351a8.957731 8.957731 0 0 1 1.910983-17.807968 241.954278 241.954278 0 0 0 113.799011-22.609313c81.216758-37.240272 137.746011-112.855463 167.927591-224.743491a8.957731 8.957731 0 1 1 17.294393 4.669963 415.113185 415.113185 0 0 1-78.828031 160.044789 281.48773 281.48773 0 0 1-99.801063 76.690118 267.728655 267.728655 0 0 1-108.615471 24.317253z" fill="#C6D0DD" p-id="47586"></path><path d="M928.618083 0l-103.264719 257.54073-70.754129-93.769525-89.302603-76.307922z m-106.477559 233.46235l85.815061-214.006159-218.819446 72.677055 74.205841 63.40879z" fill="#C6D0DD" p-id="47587"></path><path d="M758.970607 165.646356a5.97182 5.97182 0 0 1-4.347485-1.875151 5.97182 5.97182 0 0 1 0.250817-8.444155l157.357469-148.101147a5.97182 5.97182 0 0 1 8.444154 0.250816 5.97182 5.97182 0 0 1-0.250816 8.444154l-157.35747 148.089204a5.97182 5.97182 0 0 1-4.096669 1.636279z" fill="#C6D0DD" p-id="47588"></path><path d="M261.924046 178.593263a34.397686 34.397686 0 1 1-34.397686 34.397686 34.44546 34.44546 0 0 1 34.397686-34.397686z m0 56.863675a22.454045 22.454045 0 1 0-22.454045-22.465989 22.489876 22.489876 0 0 0 22.454045 22.465989z" fill="#C6D0DD" p-id="47589"></path><path d="M940.38257 269.114118a21.414948 21.414948 0 1 1-21.414948 21.414948 21.498554 21.498554 0 0 1 21.414948-21.414948z m0 30.898199a9.471307 9.471307 0 1 0-9.471308-9.483251 9.483251 9.483251 0 0 0 9.471308 9.483251z" fill="#C6D0DD" p-id="47590"></path><path d="M498.454262 144.548819m3.040354 3.040354l1.047233 1.047234q3.040355 3.040355 0 6.080709l-30.369764 30.369764q-3.040355 3.040355-6.080709 0l-1.047234-1.047233q-3.040355-3.040355 0-6.080709l30.369765-30.369765q3.040355-3.040355 6.080709 0Z" fill="#C6D0DD" p-id="47591"></path><path d="M505.501701 181.088165m-3.040355 3.040354l-0.895216 0.895216q-3.040355 3.040355-6.080709 0l-30.369764-30.369765q-3.040355-3.040355 0-6.080709l0.895215-0.895216q3.040355-3.040355 6.080709 0l30.369765 30.369765q3.040355 3.040355 0 6.080709Z" fill="#C6D0DD" p-id="47592"></path></svg>